55311d26f9bb6faa36d99ee7cd34ee05 *tests/data/fate/amrnb-remux.amr
7674 tests/data/fate/amrnb-remux.amr
#tb 0: 1/8000
#media_type 0: audio
#codec_id 0: amr_nb
#sample_rate 0: 8000
#channel_layout_name 0: mono
0,          0,          0,      160,       27, 0xc9970c51
0,        160,        160,      160,       27, 0xbaa00d05
0,        320,        320,      160,       27, 0xa8af0d60
0,        480,        480,      160,       27, 0xb6750d9f
0,        640,        640,      160,       27, 0xcd7d0e5f
0,        800,        800,      160,       27, 0xaf740d0f
0,        960,        960,      160,       27, 0xcb1c0f93
0,       1120,       1120,      160,       27, 0xccfd0e02
0,       1280,       1280,      160,       27, 0xb3e60d1e
0,       1440,       1440,      160,       27, 0xbe510d70
0,       1600,       1600,      160,       27, 0xbeb30d65
0,       1760,       1760,      160,       27, 0xd4730f2b
0,       1920,       1920,      160,       27, 0xa8540cd0
0,       2080,       2080,      160,       27, 0xafdb0c14
0,       2240,       2240,      160,       27, 0xd9930f24
0,       2400,       2400,      160,       27, 0xbe5f0cec
0,       2560,       2560,      160,       27, 0xb44b0c6d
0,       2720,       2720,      160,       27, 0xdc160ec9
0,       2880,       2880,      160,       27, 0xb8a20ce3
0,       3040,       3040,      160,       27, 0xb9120c90
0,       3200,       3200,      160,       27, 0xcdc70e7f
0,       3360,       3360,      160,       27, 0xc7c20f06
0,       3520,       3520,      160,       27, 0xda530f0e
0,       3680,       3680,      160,       27, 0x90750abc
0,       3840,       3840,      160,       27, 0xa4840b6d
0,       4000,       4000,      160,       27, 0x96ed0ad1
0,       4160,       4160,      160,       27, 0xb6b30c26
0,       4320,       4320,      160,       27, 0x786909ce
0,       4480,       4480,      160,       27, 0xa4ae0c7d
0,       4640,       4640,      160,       27, 0x9ff90ba2
0,       4800,       4800,      160,       27, 0x914c0c22
0,       4960,       4960,      160,       27, 0xa8df0c9c
0,       5120,       5120,      160,       27, 0xb67f0d8e
0,       5280,       5280,      160,       27, 0xb6810cca
0,       5440,       5440,      160,       27, 0xa6110c80
0,       5600,       5600,      160,       27, 0xda0f0ecf
0,       5760,       5760,      160,       27, 0xd6270e0d
0,       5920,       5920,      160,       27, 0xd2150ffc
0,       6080,       6080,      160,       27, 0xbd010da4
0,       6240,       6240,      160,       27, 0xb9eb0e46
0,       6400,       6400,      160,       27, 0xc8a80eb6
0,       6560,       6560,      160,       27, 0xcc6b0cec
0,       6720,       6720,      160,       27, 0xab190db0
0,       6880,       6880,      160,       27, 0xb3f90ca7
0,       7040,       7040,      160,       27, 0xa84a0cc9
0,       7200,       7200,      160,       27, 0xcdca0e8d
0,       7360,       7360,      160,       27, 0xaf8b0d1c
0,       7520,       7520,      160,       27, 0xd9980e15
0,       7680,       7680,      160,       27, 0xcf810f8e
0,       7840,       7840,      160,       27, 0xb7810bd0
